<?xml version="1.0" standalone="no"?>
<!DOCTYPE svg PUBLIC "-//W3C//DTD SVG 20010904//EN"
 "http://www.w3.org/TR/2001/REC-SVG-20010904/DTD/svg10.dtd">
<svg version="1.0" xmlns="http://www.w3.org/2000/svg"
 width="144.000000pt" height="144.000000pt" viewBox="0 0 144.000000 144.000000"
 preserveAspectRatio="xMidYMid meet">
<metadata>
Created by potrace 1.13, written by Peter Selinger 2001-2015
</metadata>
<g transform="translate(0.000000,144.000000) scale(0.100000,-0.100000)"
fill="#000000" stroke="none">
<path d="M538 1405 c-43 -40 -68 -40 -146 -1 -37 19 -67 26 -107 26 -30 0 -55
-4 -55 -8 0 -19 58 -61 93 -67 20 -4 39 -11 42 -15 5 -8 -94 -50 -119 -50 -18
0 -145 -91 -176 -126 -66 -75 -75 -116 -41 -190 41 -90 136 -169 349 -290 79
-45 139 -83 135 -85 -5 -2 -19 -18 -31 -36 -21 -30 -130 -98 -197 -123 -26
-10 -23 -4 29 49 33 33 58 62 55 65 -2 2 -54 -41 -114 -96 -61 -55 -134 -118
-162 -141 -64 -50 -69 -78 -21 -117 30 -25 31 -29 18 -45 -14 -17 -14 -17 6
-5 17 10 27 9 65 -10 24 -13 95 -45 157 -71 126 -53 117 -54 135 22 l7 26 -78
5 c-73 5 -242 52 -242 68 0 13 168 170 183 170 8 0 -23 -37 -69 -82 -46 -45
-84 -86 -84 -92 0 -6 46 35 103 91 94 93 149 133 187 138 14 1 172 72 212 95
12 7 29 2 63 -16 57 -33 55 -46 -26 -131 -71 -74 -78 -95 -11 -33 102 97 121
112 133 108 9 -3 7 -10 -7 -25 -56 -58 -72 -82 -27 -39 41 38 55 47 73 41 21
-7 17 -13 -51 -82 l-74 -74 -203 3 c-183 3 -202 1 -202 -14 0 -9 -3 -24 -7
-33 -6 -16 7 -17 183 -10 l189 7 -62 -64 c-88 -89 -79 -98 10 -11 39 39 79 73
87 76 8 3 -25 6 -74 6 -64 1 -87 4 -79 12 10 10 57 13 233 18 36 1 59 5 53 9
-9 6 2 23 37 57 45 45 51 48 66 34 14 -15 12 -19 -27 -53 -44 -37 -39 -43 23
-26 46 13 54 25 37 56 -7 13 -9 27 -5 31 10 10 36 -26 36 -49 0 -25 -55 -57
-112 -64 -44 -6 -55 -14 -155 -116 -59 -60 -109 -113 -111 -118 -2 -6 17 -10
41 -10 l45 0 241 236 c133 130 241 241 241 247 0 5 -9 2 -20 -8 -11 -10 -20
-14 -20 -9 0 5 34 43 76 84 41 41 85 88 97 105 l21 29 -22 -16 c-13 -9 -86
-74 -164 -144 -77 -71 -149 -135 -159 -142 -24 -16 -42 -6 -36 20 4 15 1 18
-14 13 -12 -4 -21 -1 -25 10 -5 11 14 37 60 84 36 38 66 73 66 77 0 8 -21 -11
-117 -100 -37 -34 -44 -37 -58 -26 -15 12 -13 17 18 44 51 47 217 225 177 191
-19 -16 -78 -72 -131 -123 -167 -163 -117 -82 66 106 165 170 219 232 140 163
-40 -34 -54 -40 -34 -13 7 9 -62 -57 -153 -147 l-165 -163 -27 17 c-14 10 -26
20 -26 24 1 3 22 19 48 36 59 37 136 108 162 150 25 40 52 153 38 161 -5 3 -7
17 -4 30 4 13 3 24 -2 24 -4 0 -16 17 -27 37 -11 21 -39 58 -62 83 -24 25 -43
48 -43 53 0 4 -4 7 -10 7 -5 0 -44 25 -86 55 -42 30 -103 67 -135 82 -32 16
-59 31 -59 35 0 4 32 23 70 44 71 37 82 50 55 60 -8 4 -12 10 -9 15 9 15 -53
10 -66 -6 -7 -8 -19 -15 -27 -15 -13 0 -13 2 -2 17 8 10 -1 5 -19 -10 -42 -34
-63 -36 -32 -2 35 37 11 30 -32 -10z m-58 -150 c0 -2 -15 -21 -32 -42 -33 -38
-17 -31 34 15 l27 24 33 -22 c96 -67 219 -174 214 -187 -4 -8 -6 -19 -6 -24 0
-5 -6 -9 -12 -9 -7 0 -33 -20 -57 -45 -24 -25 -41 -45 -37 -45 4 0 -10 -21
-31 -47 -67 -81 -60 -81 25 0 45 42 88 77 95 77 7 0 23 12 36 26 19 21 25 23
38 13 20 -17 73 -110 73 -128 0 -30 -57 -96 -135 -154 -98 -73 -101 -74 -128
-51 -12 11 -38 28 -57 38 -52 29 -381 255 -412 284 -16 14 -28 29 -28 34 0 4
17 27 38 50 43 48 146 116 247 164 77 37 75 36 75 29z"/>
</g>
</svg>
